<svg width="51" height="50" viewBox="0 0 51 50" fill="none" xmlns="http://www.w3.org/2000/svg">
<path d="M46.7381 11.9167L37.1547 3.875L34.4672 7.0625L44.0506 15.1042L46.7381 11.9167ZM17.3214 7.0625L14.6547 3.875L5.07141 11.8958L7.75891 15.0833L17.3214 7.0625ZM26.9464 16.6667H23.8214V29.1667L33.7172 35.1042L35.2797 32.5417L26.9464 27.6042V16.6667ZM25.9047 8.33333C15.5506 8.33333 7.15474 16.7292 7.15474 27.0833C7.15474 37.4375 15.5297 45.8333 25.9047 45.8333C30.8776 45.8333 35.6467 43.8579 39.163 40.3416C42.6793 36.8253 44.6547 32.0561 44.6547 27.0833C44.6547 22.1105 42.6793 17.3414 39.163 13.8251C35.6467 10.3088 30.8776 8.33333 25.9047 8.33333ZM25.9047 41.6667C17.8422 41.6667 11.3214 35.1458 11.3214 27.0833C11.3214 19.0208 17.8422 12.5 25.9047 12.5C33.9672 12.5 40.4881 19.0208 40.4881 27.0833C40.4881 35.1458 33.9672 41.6667 25.9047 41.6667Z" fill="white"/>
</svg>
