<svg width="778" height="262" viewBox="0 0 778 262" fill="none" xmlns="http://www.w3.org/2000/svg">
<g filter="url(#filter0_d_102_418)">
<g clip-path="url(#clip0_102_418)">
<rect x="10" width="768" height="252" rx="15" fill="#D9D9D9"/>
<path d="M80 117.312V70.75H103.312H126.562V76.5625V82.375H109.125H91.625V94.0625V105.688H109.125H126.562V94.0625V82.375H132.375H138.188V94.0625V105.688H132.375H126.562V111.5V117.312H109.125H91.625V140.562V163.875H85.8125H80V117.312ZM149.875 134.75V105.688H155.688H161.5V111.5V117.312H167.312H173.125V123.125V128.938H167.312H161.5V146.375V163.875H155.688H149.875V134.75ZM196.438 117.312H184.812H173.125V111.5V105.688H184.812H196.438V111.5V117.312ZM196.438 117.312H202.25H208.062V123.125V128.938H202.25H196.438V123.125V117.312ZM231.375 111.5V105.688H248.875H266.312V111.5V117.312H248.875H231.375V134.75V152.25H248.875H266.312V134.75V117.312H272.125H277.938V134.75V152.25H272.125H266.312V158.062V163.875H248.875H231.375V158.062V152.25H225.562H219.75V134.75V117.312H225.562H231.375V111.5ZM289.625 134.75V105.688H312.938H336.188V111.5V117.312H330.375H324.562V140.562V163.875H318.75H312.875V140.562V117.312H307.062H301.25V140.562V163.875H295.438H289.625V134.75ZM336.188 117.312H342H347.812V140.562V163.875H342H336.188V140.562V117.312ZM359.5 146.375V105.688H365.312H371.125V111.5V117.312H376.938H382.75V123.125V128.938H376.938H371.125V140.562V152.25H388.625H406.062V134.75V117.312H394.438H382.75V111.5V105.688H394.438H406.062V111.5V117.312H411.875H417.688V134.75V152.25H411.875H406.062V158.062V163.875H388.625H371.125V175.5V187.125H365.312H359.5V146.375ZM441 88.25V70.75H446.812H452.625V88.25V105.688H464.312H475.938V111.5V117.312H464.312H452.625V134.812V152.25H446.812H441V134.812V117.312H435.188H429.375V111.5V105.688H435.188H441V88.25ZM452.625 152.25H464.312H475.938V158.062V163.875H464.312H452.625V158.062V152.25ZM510.875 76.5625V70.75H528.312H545.812V76.5625V82.375H540H534.188V117.312V152.25H540H545.812V158.062V163.875H528.312H510.875V158.062V152.25H516.688H522.5V117.312V82.375H516.688H510.875V76.5625ZM580.75 88.25V70.75H586.562H592.375V88.25V105.688H604.062H615.688V111.5V117.312H604.062H592.375V134.812V152.25H586.562H580.75V134.812V117.312H574.938H569.125V111.5V105.688H574.938H580.75V88.25ZM592.375 152.25H604.062H615.688V158.062V163.875H604.062H592.375V158.062V152.25Z" fill="black"/>
<path d="M643 50H708V191H643V50Z" fill="#368DBF"/>
</g>
<rect x="12.5" y="2.5" width="763" height="247" rx="12.5" stroke="black" stroke-width="5"/>
</g>
<defs>
<filter id="filter0_d_102_418" x="0" y="0" width="778" height="262" filterUnits="userSpaceOnUse" color-interpolation-filters="sRGB">
<feFlood flood-opacity="0" result="BackgroundImageFix"/>
<feColorMatrix in="SourceAlpha" type="matrix" values="0 0 0 0 0 0 0 0 0 0 0 0 0 0 0 0 0 0 127 0" result="hardAlpha"/>
<feOffset dx="-10" dy="10"/>
<feComposite in2="hardAlpha" operator="out"/>
<feColorMatrix type="matrix" values="0 0 0 0 0 0 0 0 0 0 0 0 0 0 0 0 0 0 1 0"/>
<feBlend mode="normal" in2="BackgroundImageFix" result="effect1_dropShadow_102_418"/>
<feBlend mode="normal" in="SourceGraphic" in2="effect1_dropShadow_102_418" result="shape"/>
</filter>
<clipPath id="clip0_102_418">
<rect x="10" width="768" height="252" rx="15" fill="white"/>
</clipPath>
</defs>
</svg>
