<svg width="160" height="160" viewBox="0 0 160 160" fill="none" xmlns="http://www.w3.org/2000/svg">
<path d="M64.9858 85H95V75H104.997C104.988 64.9879 105.007 54.9929 104.997 44.9807H95V35H64.9858V45H55.0027C55.0123 55.0121 54.9932 65.0071 55.0027 75.0192H64.9858V85ZM94.9973 45C95.0068 55.0057 94.9877 64.9943 94.9973 75H65.0027C64.9932 64.9943 65.0123 55.0057 65.0027 45H94.9973Z" fill="black"/>
<path d="M115 95V85.0075H105V95.0075H115V115H45V95H55V85H45V94.9924H35V115V125L125 125.008V95H115Z" fill="black"/>
</svg>
