<svg width="130" height="130" viewBox="0 0 130 130" fill="none" xmlns="http://www.w3.org/2000/svg">
<path d="M49.9858 70H80V60H89.9973C89.9877 49.9879 90.0068 39.9929 89.9973 29.9807H80V20H49.9858V30H40.0027C40.0123 40.0121 39.9932 50.0071 40.0027 60.0192H49.9858V70ZM79.9973 30C80.0068 40.0057 79.9877 49.9943 79.9973 60H50.0027C49.9932 49.9943 50.0123 40.0057 50.0027 30H79.9973Z" fill="black"/>
<path d="M100 80V70.0075H90V80.0075H100V100H30V80H40V70H30V79.9924H20V100V110L110 110.008V80H100Z" fill="black"/>
</svg>
